<svg width="19" height="20" viewBox="0 0 19 20" fill="none" xmlns="http://www.w3.org/2000/svg"><path d="M5.667 15.63c-1.04 0-1.89.85-1.89 1.889 0 1.038.85 1.888 1.89 1.888 1.039 0 1.889-.85 1.889-1.888 0-1.04-.85-1.89-1.89-1.89zM0 .519v1.888h1.889l3.4 7.178-1.322 2.267c-.095.283-.19.661-.19.944 0 1.04.85 1.89 1.89 1.89H17v-1.89H6.044a.203.203 0 01-.188-.189v-.094l.85-1.606h6.988c.756 0 1.323-.377 1.606-.944l3.4-6.139c.189-.189.189-.283.189-.472 0-.567-.378-.945-.945-.945H3.967L3.117.52H0zm15.111 15.11c-1.039 0-1.889.85-1.889 1.89 0 1.038.85 1.888 1.89 1.888 1.038 0 1.888-.85 1.888-1.888 0-1.04-.85-1.89-1.889-1.89z" fill="#FF834E"/></svg>