<svg width="230" height="33" viewBox="0 0 230 33" fill="none" xmlns="http://www.w3.org/2000/svg"><path d="M83.304 15.737l1.895 5.968 1.895-5.968h1.28l-2.565 7.808h-1.225l-1.895-5.908-1.895 5.908h-1.23l-2.565-7.808h1.285l1.895 5.968 1.895-5.968h1.23zm11.094 6.692h4.405v1.116h-5.63v-7.808h5.521v1.116h-4.296v2.064h3.403v1.116h-3.403v2.396zm12.771 1.116h-3.343v-7.808H107c.632 0 1.171.209 1.617.626.447.418.67.897.67 1.438 0 .312-.065.599-.196.86-.127.261-.254.443-.381.545l-.202.158a2.737 2.737 0 01.409.3c.138.112.256.237.354.375.101.138.194.317.277.539a1.8 1.8 0 01.131.68c0 .625-.239 1.162-.719 1.612-.479.45-1.076.675-1.791.675zm-2.118-1.061h2.118a1.253 1.253 0 001.285-1.28c0-.363-.123-.668-.37-.915a1.232 1.232 0 00-.915-.37h-2.118v2.565zM107 16.799h-1.949v2.118H107c.305 0 .557-.1.757-.3.203-.203.305-.455.305-.756 0-.305-.102-.558-.305-.757a1.017 1.017 0 00-.757-.305zm12.49 6.746l3.234-7.808h1.226l3.234 7.808h-1.28l-.838-2.063h-3.458l-.838 2.063h-1.28zm3.85-6.414l-1.285 3.235h2.564l-1.279-3.235zm13.549 6.414h-5.015v-7.808h1.225v6.692h3.79v1.116zm3.231-7.808h5.908v1.116h-2.341v6.692h-1.225v-6.692h-2.342v-1.116zm11.824 6.692h4.405v1.116h-5.63v-7.808h5.521v1.116h-4.296v2.064h3.403v1.116h-3.403v2.396zm9.427 1.116v-7.808h3.289c.723 0 1.322.23 1.797.692.476.46.713 1.03.713 1.71 0 .319-.054.618-.163.898-.109.276-.24.494-.392.653-.152.16-.305.3-.457.42-.153.12-.284.201-.392.245l-.158.07 1.786 3.12h-1.34l-1.671-3.01h-1.786v3.01h-1.226zm4.199-4.492c.246-.247.37-.552.37-.915 0-.366-.124-.671-.37-.914a1.227 1.227 0 00-.91-.37h-2.063v2.564h2.063c.363 0 .666-.122.91-.365zm12.362-3.316h1.225v7.808h-1.056l-4.351-5.63v5.63h-1.225v-7.808h1.056l4.351 5.636v-5.636zm5.91 7.808l3.234-7.808h1.226l3.234 7.808h-1.28l-.838-2.063h-3.458l-.838 2.063h-1.28zm3.85-6.414l-1.285 3.235h2.564l-1.279-3.235zm6.966-1.394h5.908v1.116h-2.341v6.692H197v-6.692h-2.342v-1.116zm10.599 7.808v-7.808h1.225v7.808h-1.225zm9.084 0l-3.071-7.808h1.285l2.396 6.246 2.401-6.246h1.28l-3.066 7.808h-1.225zm10.31-1.116h4.405v1.116h-5.63v-7.808h5.521v1.116h-4.296v2.064h3.403v1.116h-3.403v2.396z" fill="#fff"/><path d="M83.304 15.737l.067-.02-.016-.05h-.05v.07zm1.895 5.968l-.066.021.066.21.067-.21-.067-.021zm1.895-5.968v-.07h-.051l-.015.05.066.02zm1.28 0l.066.022.03-.091h-.096v.07zm-2.565 7.808v.07h.05l.016-.048-.066-.022zm-1.225 0l-.067.022.016.048h.05v-.07zm-1.895-5.908l.066-.02-.066-.208-.066.207.066.021zm-1.895 5.908v.07h.05l.016-.048-.066-.022zm-1.23 0l-.067.022.016.048h.05v-.07zm-2.565-7.808v-.07h-.096l.03.092.066-.022zm1.285 0l.066-.02-.015-.05h-.051v.07zm1.895 5.968l-.067.021.067.21.066-.21-.066-.021zm1.895-5.968v-.07h-.051l-.016.05.067.02zm1.164.021l1.895 5.968.133-.042-1.895-5.968-.133.042zm2.028 5.968l1.894-5.968-.132-.042-1.895 5.968.133.042zm1.828-5.92h1.28v-.138h-1.28v.139zm1.213-.09l-2.564 7.808.132.043 2.565-7.808-.133-.044zm-2.498 7.76h-1.225v.14h1.225v-.14zm-1.159.048l-1.895-5.908-.132.043 1.894 5.908.133-.043zm-2.027-5.908l-1.895 5.908.132.043 1.895-5.908-.132-.043zm-1.829 5.86h-1.23v.14h1.23v-.14zm-1.164.048l-2.565-7.809-.132.044 2.564 7.808.133-.043zm-2.631-7.717h1.285v-.14h-1.285v.14zm1.218-.049l1.895 5.968.133-.042-1.895-5.968-.133.042zm2.028 5.968l1.895-5.968-.133-.042-1.895 5.968.133.042zm1.829-5.92h1.23v-.138h-1.23v.139zm12.324 6.623h-.07v.07h.07v-.07zm4.405 0h.07v-.07h-.07v.07zm0 1.116v.07h.07v-.07h-.07zm-5.63 0h-.07v.07h.07v-.07zm0-7.808v-.07h-.07v.07h.07zm5.521 0h.07v-.07h-.07v.07zm0 1.116v.07h.07v-.07h-.07zm-4.296 0v-.07h-.07v.07h.07zm0 2.064h-.07v.07h.07v-.07zm3.403 0h.07v-.07h-.07v.07zm0 1.116v.07h.07v-.07h-.07zm-3.403 0v-.07h-.07v.07h.07zm0 2.466h4.405v-.14h-4.405v.14zm4.335-.07v1.116h.14V22.43h-.14zm.07 1.047h-5.63v.14h5.63v-.14zm-5.56.07v-7.809h-.14v7.808h.14zm-.07-7.74h5.521v-.138h-5.521v.139zm5.451-.069v1.116h.14v-1.116h-.14zm.07 1.047h-4.296v.14h4.296v-.14zm-4.366.07v2.063h.14v-2.064h-.14zm.07 2.133h3.403v-.14h-3.403v.14zm3.334-.07v1.116h.139v-1.116h-.14zm.07 1.047h-3.404v.139h3.403v-.14zm-3.474.07v2.395h.14v-2.396h-.14zm9.498 3.511h-.07v.07h.07v-.07zm0-7.808v-.07h-.07v.07h.07zm5.265 2.924l-.062-.031h-.001l.063.031zm-.381.545l.043.055-.043-.055zm-.202.158l-.043-.055-.086.068.098.049.031-.062zm.12.076l-.04.057.004.003.036-.06zm.289.223l-.045.053.001.001.044-.054zm.354.376l-.057.04.001.001.056-.041zm.277.539l-.065.024.001.002.064-.026zm-4.497 1.906h-.07v.07h.07v-.07zm3.033-.365l.049.05-.049-.05zm0-1.83l-.05.05.05-.05zm-3.033-.37v-.07h-.07v.07h.07zm0-3.12v-.07h-.07v.07h.07zm0 2.118h-.07v.07h.07v-.07zm2.706-1.813l-.05.049h.001l.049-.05zm-.588 6.372h-3.343v.14h3.343v-.14zm-3.274.07v-7.809h-.139v7.808h.139zm-.069-7.74H107v-.138h-3.174v.139zm3.174 0c.615 0 1.137.203 1.57.608l.095-.102a2.353 2.353 0 00-1.665-.645v.14zm1.57.608c.434.406.647.868.647 1.387h.14c0-.563-.234-1.06-.692-1.489l-.095.102zm.647 1.387c0 .302-.063.578-.188.829l.124.062c.136-.271.204-.569.204-.891h-.14zm-.189.83c-.125.258-.247.428-.362.52l.087.11c.14-.112.272-.305.401-.57l-.126-.06zm-.361.52l-.202.158.086.11.202-.159-.086-.11zm-.19.275a.931.931 0 01.111.07l.081-.113a1.07 1.07 0 00-.129-.082l-.063.125zm.115.074c.049.029.141.1.28.216l.09-.106a2.884 2.884 0 00-.298-.23l-.072.12zm.281.217c.133.109.247.23.341.362l.114-.08a2.01 2.01 0 00-.367-.39l-.088.108zm.342.363c.096.131.186.305.268.522l.131-.049a2.34 2.34 0 00-.287-.556l-.112.083zm.269.524c.084.21.125.427.125.655h.14c0-.245-.045-.481-.136-.707l-.129.052zm.125.655c0 .604-.23 1.123-.696 1.56l.095.102c.492-.462.741-1.018.741-1.662h-.14zm-.696 1.56c-.465.437-1.045.657-1.744.657v.14c.731 0 1.346-.232 1.839-.695l-.095-.102zm-3.862-.266h2.118v-.14h-2.118v.14zm2.118 0c.38 0 .703-.128.964-.385l-.098-.099c-.233.23-.52.345-.866.345v.14zm.964-.385c.26-.26.391-.583.391-.964h-.14c0 .345-.116.632-.35.866l.099.098zm.391-.964c0-.38-.131-.704-.391-.964l-.099.099c.234.233.35.52.35.865h.14zm-.391-.964a1.3 1.3 0 00-.964-.39v.139c.349 0 .636.116.865.35l.099-.099zm-.964-.39h-2.118v.139h2.118v-.14zm-2.188.069v2.565h.139v-2.565h-.139zm2.019-3.19h-1.949v.14H107v-.14zm-2.019.07v2.118h.139V16.8h-.139zm.07 2.188H107v-.14h-1.949v.14zm1.949 0c.322 0 .592-.106.806-.32l-.098-.099a.958.958 0 01-.708.28v.139zm.806-.32c.217-.217.326-.488.326-.806h-.14a.96.96 0 01-.284.707l.098.099zm.326-.806a1.09 1.09 0 00-.326-.807l-.098.1c.189.185.284.42.284.707h.14zm-.325-.806a1.087 1.087 0 00-.807-.326v.14c.288 0 .522.095.707.284l.1-.098zm11.683 6.49l-.064-.026-.04.096h.104v-.07zm3.234-7.808v-.07h-.046l-.018.043.064.027zm1.226 0l.064-.027-.018-.043h-.046v.07zm3.234 7.808v.07h.104l-.04-.096-.064.026zm-1.28 0l-.064.027.017.043h.047v-.07zm-.838-2.063l.064-.026-.017-.044h-.047v.07zm-3.458 0v-.07h-.047l-.017.044.064.026zm-.838 2.063v.07h.047l.017-.043-.064-.027zm2.57-6.414l.065-.026-.065-.163-.065.163.065.026zm-1.285 3.235l-.065-.026-.038.095h.103v-.07zm2.564 0v.07h.103l-.038-.096-.065.026zm-5.065 3.206l3.235-7.808-.129-.053-3.234 7.808.128.053zm3.17-7.765h1.226v-.14h-1.226v.14zm1.161-.043l3.235 7.808.128-.053-3.234-7.808-.129.053zm3.299 7.712h-1.28v.14h1.28v-.14zm-1.215.043l-.839-2.063-.129.052.839 2.064.129-.053zm-.903-2.107h-3.458v.14h3.458v-.14zm-3.522.044l-.839 2.063.129.053.839-2.064-.129-.052zm-.774 2.02h-1.28v.14h1.28v-.14zm2.505-6.37l-1.285 3.234.129.051 1.285-3.234-.129-.052zm-1.22 3.33h2.564v-.14h-2.564v.14zm2.629-.096l-1.279-3.235-.13.052 1.279 3.234.13-.051zm12.205 3.205v.07h.07v-.07h-.07zm-5.015 0h-.069v.07h.069v-.07zm0-7.808v-.07h-.069v.07h.069zm1.225 0h.07v-.07h-.07v.07zm0 6.692h-.069v.07h.069v-.07zm3.79 0h.07v-.07h-.07v.07zm0 1.047h-5.015v.14h5.015v-.14zm-4.945.07v-7.809h-.139v7.808h.139zm-.07-7.74h1.225v-.138h-1.225v.139zm1.156-.069v6.692h.139v-6.692h-.139zm.069 6.762h3.79v-.14h-3.79v.14zm3.721-.07v1.116h.139V22.43h-.139zm3.3-6.692v-.07h-.069v.07h.069zm5.908 0h.07v-.07h-.07v.07zm0 1.116v.07h.07v-.07h-.07zm-2.341 0v-.07h-.07v.07h.07zm0 6.692v.07h.07v-.07h-.07zm-1.225 0h-.07v.07h.07v-.07zm0-6.692h.069v-.07h-.069v.07zm-2.342 0h-.069v.07h.069v-.07zm0-1.046h5.908v-.14h-5.908v.14zm5.839-.07v1.116h.139v-1.116h-.139zm.069 1.047h-2.341v.14h2.341v-.14zm-2.411.07v6.691h.14v-6.692h-.14zm.07 6.622h-1.225v.14h1.225v-.14zm-1.156.07v-6.693h-.139v6.692h.139zm-.069-6.762h-2.342v.14h2.342v-.14zm-2.272.07v-1.117h-.139v1.116h.139zm11.754 5.575h-.07v.07h.07v-.07zm4.405 0h.07v-.07h-.07v.07zm0 1.116v.07h.07v-.07h-.07zm-5.63 0h-.07v.07h.07v-.07zm0-7.808v-.07h-.07v.07h.07zm5.521 0h.07v-.07h-.07v.07zm0 1.116v.07h.07v-.07h-.07zm-4.296 0v-.07h-.07v.07h.07zm0 2.064h-.07v.07h.07v-.07zm3.403 0h.07v-.07h-.07v.07zm0 1.116v.07h.07v-.07h-.07zm-3.403 0v-.07h-.07v.07h.07zm0 2.466h4.405v-.14h-4.405v.14zm4.335-.07v1.116h.14V22.43h-.14zm.07 1.047h-5.63v.14h5.63v-.14zm-5.561.07v-7.809h-.139v7.808h.139zm-.069-7.74h5.521v-.138h-5.521v.139zm5.451-.069v1.116h.14v-1.116h-.14zm.07 1.047h-4.296v.14h4.296v-.14zm-4.366.07v2.063h.139v-2.064h-.139zm.07 2.133h3.403v-.14h-3.403v.14zm3.333-.07v1.116h.14v-1.116h-.14zm.07 1.047h-3.403v.139h3.403v-.14zm-3.473.07v2.395h.139v-2.396h-.139zm9.497 3.511h-.069v.07h.069v-.07zm0-7.808v-.07h-.069v.07h.069zm5.636 3.3l.065.026-.065-.026zm-1.241 1.318l-.026-.065-.003.001.029.064zm-.158.07l-.029-.063-.07.031.038.067.061-.035zm1.786 3.12v.07h.12l-.06-.104-.06.034zm-1.34 0l-.061.034.02.036h.041v-.07zm-1.671-3.01l.06-.035-.019-.035h-.041v.07zm-1.786 0v-.07h-.07v.07h.07zm0 3.01v.07h.069v-.07h-.069zm2.973-6.321l-.05.049h.001l.049-.05zm-2.973-.37v-.07h-.07v.07h.07zm0 2.564h-.07v.07h.07v-.07zm-1.156 4.127v-7.808h-.139v7.808h.139zm-.07-7.738h3.289v-.14h-3.289v.14zm3.289 0c.706 0 1.287.225 1.749.672l.097-.1c-.49-.475-1.107-.712-1.846-.712v.14zm1.749.672c.461.447.692.999.692 1.66h.139c0-.698-.245-1.286-.734-1.76l-.097.1zm.692 1.66c0 .31-.053.602-.159.873l.13.05c.112-.288.168-.596.168-.924h-.139zm-.159.872c-.106.27-.233.48-.377.631l.1.096c.161-.168.296-.394.407-.675l-.13-.052zm-.377.631a4.405 4.405 0 01-.45.413l.086.11c.155-.123.31-.265.464-.427l-.1-.096zm-.45.413a1.648 1.648 0 01-.375.235l.051.13a1.79 1.79 0 00.41-.256l-.086-.11zm-.378.236l-.158.07.057.128.158-.07-.057-.128zm-.19.169l1.786 3.12.121-.07-1.786-3.12-.121.07zm1.847 3.016h-1.34v.14h1.34v-.14zm-1.279.036l-1.672-3.012-.121.068 1.671 3.011.122-.067zm-1.732-3.047h-1.786v.139h1.786v-.14zm-1.856.07v3.01h.139v-3.01h-.139zm.07 2.94h-1.226v.14h1.226v-.14zm3.022-4.373c.26-.26.39-.583.39-.964h-.139c0 .346-.117.633-.35.866l.099.098zm.39-.964a1.3 1.3 0 00-.391-.964l-.097.1c.232.229.349.515.349.864h.139zm-.39-.963a1.294 1.294 0 00-.959-.391v.14c.346 0 .63.116.86.349l.099-.098zm-.959-.391h-2.063v.14h2.063v-.14zm-2.133.07v2.564h.139v-2.565h-.139zm.07 2.634h2.063v-.14h-2.063v.14zm2.063 0a1.3 1.3 0 00.959-.386l-.099-.098a1.16 1.16 0 01-.86.344v.14zm13.272-3.75v-.07h-.07v.07h.07zm1.225 0h.07v-.07h-.07v.07zm0 7.807v.07h.07v-.07h-.07zm-1.056 0l-.055.043.021.027h.034v-.07zm-4.351-5.63l.055-.042-.124-.162v.204h.069zm0 5.63v.07h.07v-.07h-.07zm-1.225 0h-.07v.07h.07v-.07zm0-7.808v-.07h-.07v.07h.07zm1.056 0l.056-.042-.021-.027h-.035v.07zm4.351 5.636l-.055.042.125.162v-.204h-.07zm0-5.566h1.225v-.14h-1.225v.14zm1.155-.07v7.808h.14v-7.808h-.14zm.07 7.739h-1.056v.14h1.056v-.14zm-1.001.027l-4.351-5.63-.11.085 4.351 5.63.11-.085zm-4.475-5.588v5.63h.139v-5.63h-.139zm.069 5.56h-1.225v.14h1.225v-.14zm-1.155.07v-7.808h-.14v7.808h.14zm-.07-7.738h1.056v-.14h-1.056v.14zm1.001-.027l4.351 5.635.11-.085-4.35-5.635-.111.085zm4.476 5.593v-5.636h-.14v5.636h.14zm5.84 2.172l-.064-.026-.04.096h.104v-.07zm3.234-7.808v-.07h-.046l-.018.043.064.027zm1.226 0l.064-.027-.018-.043h-.046v.07zm3.234 7.808v.07h.104l-.04-.096-.064.026zm-1.28 0l-.064.027.018.043h.046v-.07zm-.838-2.063l.064-.026-.017-.044h-.047v.07zm-3.458 0v-.07h-.047l-.017.044.064.026zm-.838 2.063v.07h.047l.017-.043-.064-.027zm2.57-6.414l.065-.026-.065-.163-.065.163.065.026zm-1.285 3.235l-.065-.026-.038.095h.103v-.07zm2.564 0v.07h.103l-.038-.096-.065.026zm-5.064 3.206l3.234-7.808-.129-.053-3.234 7.808.129.053zm3.169-7.765h1.226v-.14h-1.226v.14zm1.161-.043l3.235 7.808.128-.053-3.234-7.808-.129.053zm3.299 7.712h-1.28v.14h1.28v-.14zm-1.215.043l-.839-2.063-.129.052.839 2.064.129-.053zm-.903-2.107h-3.458v.14h3.458v-.14zm-3.522.044l-.839 2.063.129.053.839-2.064-.129-.052zm-.774 2.02h-1.28v.14h1.28v-.14zm2.505-6.37l-1.285 3.234.13.051 1.285-3.234-.13-.052zm-1.22 3.33h2.564v-.14h-2.564v.14zm2.629-.096l-1.279-3.235-.13.052 1.28 3.234.129-.051zm5.622-4.603v-.07h-.069v.07h.069zm5.908 0h.07v-.07h-.07v.07zm0 1.116v.07h.07v-.07h-.07zm-2.341 0v-.07h-.07v.07h.07zm0 6.692v.07h.069v-.07h-.069zm-1.225 0h-.07v.07h.07v-.07zm0-6.692h.069v-.07H197v.07zm-2.342 0h-.069v.07h.069v-.07zm0-1.046h5.908v-.14h-5.908v.14zm5.838-.07v1.116h.14v-1.116h-.14zm.07 1.047h-2.341v.14h2.341v-.14zm-2.411.07v6.691h.139v-6.692h-.139zm.07 6.622H197v.14h1.225v-.14zm-1.156.07v-6.693h-.139v6.692h.139zM197 16.783h-2.342v.14H197v-.14zm-2.272.07v-1.117h-.139v1.116h.139zm10.529 6.691h-.07v.07h.07v-.07zm0-7.808v-.07h-.07v.07h.07zm1.225 0h.069v-.07h-.069v.07zm0 7.808v.07h.069v-.07h-.069zm-1.156 0v-7.808h-.139v7.808h.139zm-.069-7.738h1.225v-.14h-1.225v.14zm1.155-.07v7.808h.139v-7.808h-.139zm.07 7.739h-1.225v.14h1.225v-.14zm7.859.07l-.065.025.018.044h.047v-.07zm-3.071-7.809v-.07h-.102l.037.096.065-.026zm1.285 0l.065-.025-.017-.044h-.048v.07zm2.396 6.246l-.065.025.065.17.065-.17-.065-.025zm2.401-6.246v-.07h-.048l-.017.045.065.025zm1.28 0l.065.026.037-.095h-.102v.07zm-3.066 7.808v.07h.048l.017-.044-.065-.026zm-1.16-.025l-3.071-7.808-.13.05 3.071 7.809.13-.051zm-3.136-7.713h1.285v-.14h-1.285v.14zm1.22-.045l2.396 6.246.13-.05-2.396-6.246-.13.05zm2.526 6.246l2.401-6.246-.13-.05-2.401 6.246.13.05zm2.336-6.201h1.28v-.14h-1.28v.14zm1.215-.095l-3.066 7.808.13.05 3.066-7.807-.13-.051zm-3.001 7.764h-1.225v.14h1.225v-.14zm9.085-1.047h-.07v.07h.07v-.07zm4.405 0h.07v-.07h-.07v.07zm0 1.116v.07h.07v-.07h-.07zm-5.63 0h-.07v.07h.07v-.07zm0-7.808v-.07h-.07v.07h.07zm5.521 0h.07v-.07h-.07v.07zm0 1.116v.07h.07v-.07h-.07zm-4.296 0v-.07h-.07v.07h.07zm0 2.064h-.07v.07h.07v-.07zm3.403 0h.07v-.07h-.07v.07zm0 1.116v.07h.07v-.07h-.07zm-3.403 0v-.07h-.07v.07h.07zm0 2.466h4.405v-.14h-4.405v.14zm4.335-.07v1.116h.14V22.43h-.14zm.07 1.047h-5.63v.14h5.63v-.14zm-5.561.07v-7.809h-.139v7.808h.139zm-.069-7.74h5.521v-.138h-5.521v.139zm5.451-.069v1.116h.14v-1.116h-.14zm.07 1.047h-4.296v.14h4.296v-.14zm-4.366.07v2.063h.139v-2.064h-.139zm.07 2.133h3.403v-.14h-3.403v.14zm3.333-.07v1.116h.14v-1.116h-.14zm.07 1.047h-3.403v.139h3.403v-.14zm-3.473.07v2.395h.139v-2.396h-.139z" fill="#fff"/><path fill-rule="evenodd" clip-rule="evenodd" d="M20.387 32.807h6.976l3.944-4.009 3.942 4.009h6.95L31.293 21.719 20.387 32.807zM0 8.916l11.752 23.068 7.114-6.882L10.36 11.63 0 8.916zm62.727-.004L50.975 31.98l-7.113-6.88 8.504-13.473 10.361-2.714zM31.297 0L19.572 16.082l3.13 5.272 8.595-8.474 8.595 8.474 3.13-5.272L31.297 0z" fill="#fff"/></svg>