<svg width="89" height="89" viewBox="0 0 89 89" fill="none" xmlns="http://www.w3.org/2000/svg"><path d="M78.522 41.242c-3.029-1.514-8.707-1.531-8.947-1.531a1.304 1.304 0 000 2.607c1.465 0 5.72.226 7.78 1.257a1.304 1.304 0 101.166-2.332z" fill="#EF8B54"/><path d="M85.021 59.804l-5.384-1.538a.547.547 0 01-.395-.524v-1.797a9.797 9.797 0 001.247-1.022 9.591 9.591 0 002.935-6.939v-2.48l.52-1.04a8.316 8.316 0 00.874-3.7v-6.72c0-.72-.584-1.303-1.303-1.303H70.969c-4.562 0-8.274 3.712-8.274 8.274v.077c0 1.063.252 2.127.727 3.077l.667 1.335v2.13c0 3.374 1.663 6.402 4.182 8.224v1.884c0 .29 0 .41-1.076.718l-2.627.75-7.6-2.763a1.302 1.302 0 00-.356-.998l-2.428-2.551v-4.283c.257-.212.51-.43.755-.659a15.301 15.301 0 004.82-11.123v-3.421a15.068 15.068 0 001.395-6.337v-13.94c0-.72-.584-1.303-1.304-1.303H40.335c-6.868 0-12.456 5.587-12.456 12.455v2.788c0 2.194.47 4.324 1.394 6.337v2.944c0 4.873 2.167 9.264 5.576 12.158v4.384l-2.428 2.551c-.262.275-.383.64-.356.999l-8.021 2.916a6.835 6.835 0 00-1.612.845l-1.26-.63c3.75-1.632 4.938-3.928 4.995-4.042a1.307 1.307 0 000-1.166c-.94-1.88-1.054-5.325-1.145-8.093a70.48 70.48 0 00-.115-2.568c-.444-6.253-5.198-10.969-11.058-10.969-5.86 0-10.614 4.716-11.058 10.97a70.53 70.53 0 00-.114 2.567c-.092 2.768-.206 6.213-1.145 8.093a1.3 1.3 0 000 1.166c.057.114 1.242 2.405 4.999 4.039l-3.499 1.75A5.457 5.457 0 000 66.231v9.632a1.304 1.304 0 002.607 0v-9.632c0-1.097.61-2.084 1.591-2.574l4.357-2.179 1.515 1.44a5.47 5.47 0 003.78 1.51 5.468 5.468 0 003.778-1.51l1.515-1.44 1.42.71a6.865 6.865 0 00-1.048 3.64v10.035a1.304 1.304 0 002.608 0V65.83c0-1.79 1.13-3.404 2.812-4.015l8.457-3.075 3.52 5.28a2.687 2.687 0 002.248 1.202c.713 0 1.395-.28 1.905-.79l2.148-2.148v13.58a1.304 1.304 0 002.607 0v-13.58l2.148 2.148a2.686 2.686 0 002.173.777 2.688 2.688 0 001.98-1.188l3.52-5.281 8.457 3.075a4.285 4.285 0 012.812 4.015v10.034a1.304 1.304 0 002.607 0V65.83c0-1.813-.72-3.513-1.928-4.77l.322-.092a7.15 7.15 0 001.213-.438l3.329 3.329v12.005a1.304 1.304 0 002.607 0V63.86l3.306-3.306c.176.09.36.165.555.22l5.384 1.539a2.89 2.89 0 012.088 2.767v10.785a1.304 1.304 0 002.607 0V65.08a5.51 5.51 0 00-3.979-5.275zM8.364 57.501c-2.439-.877-3.662-2.047-4.184-2.686.356-.93.587-1.996.743-3.122a9.722 9.722 0 003.44 4.246V57.5zm7.468 3.529a2.877 2.877 0 01-3.965 0l-1.213-1.153c.205-.383.317-.818.317-1.273v-1.39a9.696 9.696 0 005.756 0v1.39c0 .456.113.89.317 1.274l-1.212 1.152zm-1.982-5.985a7.068 7.068 0 01-7.06-7.06A1.304 1.304 0 005.272 46.7l.012-.335a69.01 69.01 0 01.108-2.47c.167-2.342 1.103-4.5 2.636-6.078a8.058 8.058 0 015.822-2.468c2.207 0 4.274.876 5.821 2.468 1.533 1.577 2.47 3.736 2.636 6.078.052.726.08 1.573.11 2.47l.007.232c-1.418-2.186-3.609-3.796-6.44-4.706-2.614-.84-4.863-.788-4.958-.785-.342.01-.666.152-.903.398l-2.352 2.44a1.304 1.304 0 101.877 1.81l1.957-2.03c1.686.082 7.109.713 9.218 5.357a7.043 7.043 0 01-6.973 5.964zm5.485 2.46v-1.554a9.643 9.643 0 003.442-4.25c.156 1.122.387 2.186.742 3.114-.52.633-1.748 1.814-4.184 2.69zm12.546-21.15v-3.234c0-.197-.045-.39-.13-.567a12.505 12.505 0 01-1.264-5.479v-2.788c0-5.43 4.418-9.848 9.848-9.848h18.211v12.636c0 1.899-.425 3.742-1.264 5.479-.085.177-.13.37-.13.567v3.712c0 3.53-1.419 6.805-3.996 9.221-.322.301-.656.584-1.001.847l-.022.017c-2.415 1.833-5.372 2.724-8.46 2.524-6.613-.429-11.792-6.177-11.792-13.087zm7.34 26.233a.083.083 0 01-.072.026.083.083 0 01-.067-.04l-4.054-6.082 1.305-1.37 6.15 4.203-3.262 3.263zm5.296-5.031l-7.06-4.826v-2.434a14.678 14.678 0 007.073 1.78 15.1 15.1 0 007.047-1.727v2.38l-7.06 4.827zm5.434 5.017a.083.083 0 01-.066.04c-.043.006-.064-.017-.073-.026l-3.262-3.262 6.15-4.205 1.305 1.371-4.054 6.082zm23.806-1.1l-2.959-2.958c.052-.235.08-.491.08-.774v-.55a9.144 9.144 0 002.882.46c.99 0 1.956-.15 2.875-.435v.525c0 .26.033.515.094.76l-2.972 2.972zm4.916-8.422a7.007 7.007 0 01-5.134 1.99c-3.773-.114-6.842-3.437-6.842-7.408v-2.437c0-.203-.047-.402-.138-.583l-.805-1.611a4.295 4.295 0 01-.451-1.91v-.078a5.673 5.673 0 015.666-5.666H82.21v5.414c0 .875-.207 1.752-.598 2.535l-.659 1.316c-.09.18-.137.38-.137.583v2.788a7.004 7.004 0 01-2.144 5.067z" fill="#EF8B54"/><path d="M82.12 66.196c-.72 0-1.303.584-1.303 1.304v8.364a1.304 1.304 0 002.607 0V67.5c0-.72-.583-1.304-1.303-1.304zM6.88 67.92c-.72 0-1.304.583-1.304 1.303v6.64a1.304 1.304 0 002.607 0v-6.64c0-.72-.583-1.304-1.303-1.304zm48.316-40.373c-4.93-4.93-15.247-3.988-19.454-3.354a2.677 2.677 0 00-2.287 2.667v3.003a1.304 1.304 0 002.607 0V26.86c0-.045.03-.083.069-.089 1.68-.253 5.014-.644 8.47-.413 4.065.27 7.01 1.29 8.751 3.033a1.304 1.304 0 101.844-1.844zM29.183 68.984c-.72 0-1.304.584-1.304 1.304v5.576a1.304 1.304 0 002.608 0v-5.576c0-.72-.584-1.304-1.304-1.304zm30.667 0c-.72 0-1.304.584-1.304 1.304v5.576a1.304 1.304 0 002.608 0v-5.576c0-.72-.584-1.304-1.304-1.304z" fill="#EF8B54"/></svg>