<svg width="75" height="75" viewBox="0 0 75 75" fill="none" xmlns="http://www.w3.org/2000/svg"><path d="M19.978 8.211h13.06a1.184 1.184 0 100-2.368h-13.06a1.184 1.184 0 100 2.368zm0 5.227h26.12a1.184 1.184 0 100-2.369h-26.12a1.184 1.184 0 100 2.369zm0 16.282h13.06a1.184 1.184 0 100-2.369h-13.06a1.184 1.184 0 100 2.368zm0 5.226H45.81a1.184 1.184 0 100-2.368H19.978a1.184 1.184 0 100 2.368zm0 16.282h13.06a1.184 1.184 0 100-2.369h-13.06a1.184 1.184 0 100 2.369zm25.647 2.858H19.978a1.184 1.184 0 100 2.368h25.647a1.184 1.184 0 100-2.368z" fill="#EF8B54"/><path d="M69.386 59.3l-6.88-2.759v-1.51a8.127 8.127 0 003.933-4.913 4.193 4.193 0 004.166-4.188 4.184 4.184 0 00-1.712-3.375v-3.144c0-5.853-4.762-10.615-10.614-10.615h-.786c-.878 0-1.73.11-2.546.311v-6.414c0-.655-.53-1.184-1.184-1.184h-3.517a1.184 1.184 0 100 2.368h2.333v6.13c-3.108 1.63-5.312 4.755-5.653 8.414H2.368V23.877h43.914a1.184 1.184 0 100-2.368H1.184c-.654 0-1.184.53-1.184 1.184v16.912c0 .654.53 1.184 1.184 1.184H46.88v1.754c-.196.142-.378.3-.546.474H1.184C.53 43.017 0 43.547 0 44.2v16.912c0 .654.53 1.184 1.184 1.184h41.19c-1 1.376-1.75 3.23-1.75 5.629v5.888c0 .654.53 1.186 1.185 1.186h4.474a1.184 1.184 0 100-2.369h-3.29v-4.705c0-4.925 3.876-6.338 4.034-6.393l.054-.02 6.483-2.539c.03.037.06.072.095.106l3.4 3.312c.222.215.518.336.827.336h.018c.315-.005.615-.136.834-.363l3.326-3.45 6.47 2.595.057.02c.165.058 4.04 1.472 4.04 6.396v4.706H50.072a1.184 1.184 0 100 2.368h23.744A1.193 1.193 0 0075 73.804v-5.878c0-5.3-3.651-7.95-5.614-8.626zm-2.64-15.158a1.822 1.822 0 011.49 1.788c0 .891-.643 1.633-1.49 1.789v-3.577zm-17.5-4.731c.001-4.547 3.7-8.246 8.247-8.246h.786c4.547 0 8.246 3.7 8.246 8.246v1.934l-.005-.007a1.086 1.086 0 00-.11-.131l-.035-.034a1.311 1.311 0 00-.05-.045l-.035-.029a1.195 1.195 0 00-.055-.04c-.013-.01-.027-.018-.04-.027a1.134 1.134 0 00-.056-.033c-.016-.01-.033-.018-.05-.026l-.051-.025-.063-.025-.045-.016c-.024-.008-.049-.014-.073-.02l-.033-.01c-2.577-.586-3.383-3.918-3.39-3.947a1.184 1.184 0 00-2.115-.433c-3.116 4.308-9.974 4.35-10.068 4.35h-.005c-.04 0-.081.003-.121.007l-.037.006a1.026 1.026 0 00-.13.025l-.063.016-.057.02c-.017.007-.035.012-.052.02-.022.009-.042.02-.063.03-.013.006-.027.012-.04.02-.022.01-.041.024-.062.036l-.036.022-.055.041-.036.027-.048.043-.036.033-.042.046-.035.038-.035.047-.033.044-.018.03V39.41zm-.184 4.723v3.593a1.821 1.821 0 01-1.544-1.796c0-.91.671-1.663 1.544-1.797zm4.239 12.4l-7.058 2.764c-.393.135-.854.35-1.34.65a1.19 1.19 0 00-.199-.019H2.368V45.385h42.818a4.193 4.193 0 004.152 4.733l.03-.001a8.128 8.128 0 003.933 4.913v1.504zm6.837.827v.138l-2.28 2.366-2.189-2.133v-1.863c.482.09.978.14 1.486.14h1.498c.508 0 1.004-.05 1.485-.14v1.492zm-1.484-3.721h-1.5a5.73 5.73 0 01-5.724-5.725v-4.759c2.067-.178 6.371-.888 9.438-3.728.628 1.239 1.72 2.732 3.51 3.465v5.023a5.73 5.73 0 01-5.724 5.724zM12.098 6.9a1.184 1.184 0 100-2.368H6.125c-.654 0-1.184.53-1.184 1.184v7.849c0 .654.53 1.184 1.184 1.184h8.234c.654 0 1.184-.53 1.184-1.184v-2.118a1.184 1.184 0 10-2.368 0v.934H7.309V6.9h4.789z" fill="#EF8B54"/><path d="M16.674 4.854a1.184 1.184 0 00-1.674.05l-3.934 4.174L9.85 7.753a1.184 1.184 0 10-1.745 1.602l2.077 2.262c.223.242.536.381.865.384h.008c.326 0 .638-.135.861-.372l4.807-5.1a1.184 1.184 0 00-.05-1.675zm-4.576 23.554a1.184 1.184 0 100-2.368H6.125c-.654 0-1.184.53-1.184 1.184v7.849c0 .654.53 1.184 1.184 1.184h8.234c.654 0 1.184-.53 1.184-1.184v-2.118a1.184 1.184 0 10-2.368 0v.934H7.309v-5.48h4.789z" fill="#EF8B54"/><path d="M16.674 26.362a1.184 1.184 0 00-1.674.05l-3.934 4.174L9.85 29.26a1.184 1.184 0 10-1.745 1.602l2.077 2.262c.223.243.536.382.865.384h.008c.326 0 .638-.135.862-.372l4.806-5.1a1.185 1.185 0 00-.05-1.675zM14.359 53.28c-.654 0-1.184.53-1.184 1.184v.933H7.309v-5.48h4.79a1.184 1.184 0 000-2.369H6.124c-.654 0-1.184.53-1.184 1.184v7.85c0 .654.53 1.184 1.184 1.184h8.234c.654 0 1.184-.53 1.184-1.185v-2.117c0-.654-.53-1.184-1.184-1.184z" fill="#EF8B54"/><path d="M15 47.92l-3.934 4.174L9.85 50.77a1.184 1.184 0 10-1.745 1.601l2.077 2.263c.223.242.536.381.865.383h.008c.326 0 .638-.134.862-.372l4.806-5.1A1.185 1.185 0 0015 47.921zM1.184 19.281h52.58c.653 0 1.183-.53 1.183-1.184V1.184C54.947.53 54.417 0 53.763 0h-3.517a1.184 1.184 0 100 2.368h2.333v14.544H2.369V2.368h43.913a1.184 1.184 0 100-2.368H1.184C.53 0 0 .53 0 1.184v16.913c0 .654.53 1.184 1.184 1.184z" fill="#EF8B54"/></svg>