<svg width="75" height="75" viewBox="0 0 75 75" fill="none" xmlns="http://www.w3.org/2000/svg"><g clip-path="url(#clip0_1_4608)" fill="#EF8B54"><path d="M74.862 17.785a3.748 3.748 0 00-1.75-2.275 3.75 3.75 0 00-5.124 1.375l-.624 1.087a1.25 1.25 0 00-1.7.45l-3.175 5.412-1.087-.625a1.251 1.251 0 00-1.712.462 1.25 1.25 0 00.462 1.7l1.088.625-10.624 18.409-2.624 7.012-1.25 2.336a3.75 3.75 0 00.2 4.05l-2.812 3.45-.787-1.975a2.499 2.499 0 00-4.462-.35l-.45.762-.425-5a2.5 2.5 0 00-4.861-.586l-3.075 9.223a1.25 1.25 0 00.787 1.575c.122.057.253.09.388.1a1.25 1.25 0 001.187-.85l3.062-9.223.438 5.073a2.5 2.5 0 004.636 1.075l.463-.762.775 1.962a2.499 2.499 0 004.274.637l2.912-3.686c.322.084.654.126.987.125a3.75 3.75 0 003.262-1.85l1.25-2.087 4.762-5.787 10.735-18.634 1.088.625a1.25 1.25 0 01.462 1.712l-4.999 8.661a1.248 1.248 0 00.4 1.762 1.249 1.249 0 001.712-.462l5-8.661a3.747 3.747 0 00-1.376-5.124l-1.087-.625 3.124-5.412a1.25 1.25 0 00-.45-1.7l.626-1.087a3.748 3.748 0 00.374-2.9zm-4.712.35c.166-.29.44-.502.763-.588a1.32 1.32 0 01.95.125c.29.166.5.44.588.763.079.32.034.66-.126.95l-.624 1.087-2.175-1.25.624-1.088zM53.116 53.028l-.625-.363-1.85-1.075 1.775-4.749 3.937 2.275-3.237 3.912zm-3.75 3.611a1.249 1.249 0 01-.374-1.637l.625-1.087 2.174 1.25-.625 1.075a1.25 1.25 0 01-1.8.4zm8.412-9.572l-4.325-2.5 9.999-17.323 4.324 2.5-9.998 17.323zm11.248-19.485l-4.324-2.5 2.5-4.324 4.323 2.5-2.5 4.324zM19.721 56.016l-4.423 4.412-2.65-2.65a1.25 1.25 0 10-1.762 1.775l2.65 2.65a2.499 2.499 0 001.762.724 2.5 2.5 0 001.774-.725l4.412-4.424a1.25 1.25 0 00-1.763-1.762z"/><path d="M5 59.377c0 5.868 4.755 10.624 10.622 10.624s10.623-4.756 10.623-10.624a1.25 1.25 0 00-2.5 0 8.124 8.124 0 11-8.123-8.123 8.053 8.053 0 014.874 1.625 1.25 1.25 0 101.5-2A10.625 10.625 0 005 59.377zM44.992 10.01a1.25 1.25 0 100-2.499H12.498c-.69 0-1.25.56-1.25 1.25v5c0 .69.56 1.249 1.25 1.249h32.494a1.25 1.25 0 100-2.5H13.748v-2.5h31.244zm-28.745 7.5a1.25 1.25 0 000 2.5h24.996a1.25 1.25 0 100-2.5H16.247zm32.495 8.748H21.246a1.25 1.25 0 000 2.5h27.496a1.25 1.25 0 100-2.5zm-12.498 8.749c0-.69-.56-1.25-1.25-1.25H9.998a1.25 1.25 0 000 2.5h24.996c.69 0 1.25-.56 1.25-1.25zm12.498-1.25h-8.749a1.25 1.25 0 000 2.5h8.749a1.25 1.25 0 100-2.5zm-26.246 8.748a1.25 1.25 0 100-2.5H9.998a1.25 1.25 0 000 2.5h12.498zm4.999 0h8.749a1.25 1.25 0 100-2.5h-8.749a1.25 1.25 0 000 2.5z"/><path d="M56.24 57.503c-.69 0-1.25.56-1.25 1.25V71.25a1.25 1.25 0 01-1.25 1.25H3.75a1.25 1.25 0 01-1.25-1.25V3.762c0-.69.56-1.25 1.25-1.25h49.99c.691 0 1.25.56 1.25 1.25v23.471a1.25 1.25 0 002.5 0V3.762a3.75 3.75 0 00-3.75-3.75H3.75A3.75 3.75 0 000 3.762V71.25A3.75 3.75 0 003.75 75h49.99a3.75 3.75 0 003.75-3.75V58.752c0-.69-.56-1.25-1.25-1.25z"/></g><defs><clipPath id="clip0_1_4608"><path fill="#fff" d="M0 0h75v75H0z"/></clipPath></defs></svg>