<svg width="75" height="75" viewBox="0 0 75 75" fill="none" xmlns="http://www.w3.org/2000/svg"><g clip-path="url(#clip0_1_4687)" fill="#EF8B54"><path d="M8.023 4.218a3.228 3.228 0 00-3.225 3.225 3.228 3.228 0 003.225 3.224 3.228 3.228 0 003.224-3.224 3.228 3.228 0 00-3.224-3.225zm0 4.251a1.028 1.028 0 010-2.053 1.028 1.028 0 010 2.053zm8.21-4.251a3.228 3.228 0 00-3.225 3.225 3.229 3.229 0 003.225 3.224 3.228 3.228 0 003.224-3.224 3.228 3.228 0 00-3.224-3.225zm0 4.251a1.028 1.028 0 010-2.053 1.028 1.028 0 010 2.053zm8.21-4.251a3.228 3.228 0 00-3.225 3.225 3.228 3.228 0 003.225 3.224 3.228 3.228 0 003.224-3.224 3.228 3.228 0 00-3.224-3.225zm0 4.251a1.028 1.028 0 010-2.053 1.027 1.027 0 010 2.053z"/><path d="M70.164 0H4.836A4.841 4.841 0 000 4.836v65.328A4.842 4.842 0 004.836 75h65.328A4.842 4.842 0 0075 70.164V53.518a1.1 1.1 0 10-2.198 0v16.646a2.641 2.641 0 01-2.638 2.638H4.836a2.641 2.641 0 01-2.638-2.638V14.947h70.604v31.784a1.099 1.099 0 002.198 0V4.836A4.841 4.841 0 0070.164 0zm2.638 12.75H2.198V4.835a2.64 2.64 0 012.638-2.638h65.328a2.641 2.641 0 012.638 2.638v7.913z"/><path d="M67.6 22.695a3.479 3.479 0 00-3.475-3.475H10.71a3.479 3.479 0 00-3.474 3.475v6.454a1.099 1.099 0 102.198 0v-6.454c0-.705.572-1.277 1.276-1.277h53.414c.704 0 1.276.572 1.276 1.277V42.81c0 .704-.572 1.277-1.276 1.277h-3.46L49.403 31.392a1.804 1.804 0 00-2.627-.078l-5.966 5.963-8.037-9.057a1.81 1.81 0 00-1.296-.607 1.822 1.822 0 00-1.33.528L14.191 44.087h-3.48a1.278 1.278 0 01-1.277-1.277v-6.727a1.1 1.1 0 10-2.198 0v6.727a3.478 3.478 0 003.474 3.474h53.414a3.478 3.478 0 003.474-3.474V22.695zM17.3 44.087L31.405 29.99l10.693 12.05a1.098 1.098 0 101.644-1.458l-1.471-1.658 5.764-5.761 9.693 10.924H17.301zm-6.59 5.274a3.477 3.477 0 00-3.473 3.474v10.78a3.477 3.477 0 003.473 3.474h21.256a3.478 3.478 0 003.474-3.474v-10.78a3.478 3.478 0 00-3.474-3.474H10.71zm22.532 3.474v10.78c0 .704-.573 1.276-1.276 1.276H10.71a1.277 1.277 0 01-1.275-1.276v-10.78c0-.704.572-1.276 1.275-1.276h21.256c.703 0 1.276.572 1.276 1.276zm9.628-3.474a3.477 3.477 0 00-3.474 3.474v10.78a3.477 3.477 0 003.474 3.474h21.255a3.478 3.478 0 003.474-3.474v-10.78a3.478 3.478 0 00-3.474-3.474H42.87zm22.53 3.474v10.78c0 .704-.572 1.276-1.276 1.276H42.87a1.277 1.277 0 01-1.276-1.276v-10.78c0-.704.572-1.276 1.276-1.276h21.255c.704 0 1.276.572 1.276 1.276z"/><path d="M12.84 55.704h2.972a1.098 1.098 0 100-2.198H12.84a1.1 1.1 0 100 2.198zm0 3.723h1.546a1.099 1.099 0 000-2.197H12.84a1.099 1.099 0 100 2.197zm16.996-2.197h-4.102a1.099 1.099 0 100 2.197h4.102a1.098 1.098 0 100-2.197zM19.58 55.704h9.963a1.099 1.099 0 100-2.198H19.58a1.099 1.099 0 000 2.198zm9.963 5.042h-2.971a1.099 1.099 0 100 2.198h2.97a1.1 1.1 0 000-2.198zm-6.74 0h-9.962a1.099 1.099 0 100 2.198h9.963a1.099 1.099 0 000-2.198zm-5.011-1.319h4.28a1.099 1.099 0 000-2.197h-4.28a1.099 1.099 0 100 2.197zM45 55.704h2.97a1.098 1.098 0 100-2.198H45a1.1 1.1 0 100 2.198zm0 3.723h1.545a1.099 1.099 0 100-2.197H45a1.099 1.099 0 100 2.197zm16.995-2.197h-4.102a1.099 1.099 0 100 2.197h4.102a1.099 1.099 0 100-2.197zM51.74 55.704h9.962a1.099 1.099 0 100-2.198h-9.963a1.1 1.1 0 100 2.198zm9.962 5.042h-2.971a1.099 1.099 0 000 2.198h2.971a1.099 1.099 0 000-2.198zm-6.74 0H45a1.099 1.099 0 100 2.198h9.962a1.1 1.1 0 000-2.198zm-5.011-1.319h4.28a1.099 1.099 0 100-2.197h-4.28a1.099 1.099 0 100 2.197zM59.96 27.36a4.19 4.19 0 00-4.185-4.184 4.19 4.19 0 00-4.184 4.185 4.19 4.19 0 004.184 4.185 4.19 4.19 0 004.185-4.185zm-6.172 0a1.988 1.988 0 013.974.001 1.99 1.99 0 01-1.987 1.987 1.989 1.989 0 01-1.987-1.987z"/></g><defs><clipPath id="clip0_1_4687"><path fill="#fff" d="M0 0h75v75H0z"/></clipPath></defs></svg>