<svg width="81" height="81" viewBox="0 0 81 81" fill="none" xmlns="http://www.w3.org/2000/svg"><g clip-path="url(#clip0_1_4535)" fill="#1D1D1D"><path d="M40.5 21.08l9.618-8.015H62.71V0H31.355v13.065H40.5v8.014zm-6.532-10.628v-7.84h26.129v7.84H49.172l-6.06 5.05v-5.05h-9.144z"/><path d="M36.58 5.226h2.614v2.613H36.58V5.226zm5.226 0h10.452v2.613H41.806V5.226zm13.064 0h2.614v2.613H54.87V5.226zm11.635 73.161l-1.057-10.576c4.362-.69 7.713-4.467 7.713-9.02V41.805h-5.225V40a4.7 4.7 0 00-2.546-4.188 7.808 7.808 0 002.546-5.765v-2.613c0-4.323-3.516-7.838-7.84-7.838-4.322 0-7.838 3.515-7.838 7.838v2.613c0 3.383 2.157 6.262 5.165 7.36l-7.012 7.011h-7.327c-.146-2.178-1.642-4.076-3.761-4.682l-5.355-1.529v-2.333a7.812 7.812 0 002.613-5.827v-2.613c0-4.323-3.516-7.838-7.84-7.838-4.322 0-7.838 3.515-7.838 7.838v2.613a7.816 7.816 0 002.613 5.827v2.335l-5.355 1.528a5.246 5.246 0 00-3.79 5.025v4.882H9.145v7.839h2.613v20.903H0V81h81v-2.613H66.505zM54.87 57.484v-5.992l9.257-9.257a4.092 4.092 0 001.157-2.506c.011.092.038.178.038.272v16.176c0 2.16-1.76 3.92-3.92 3.92h-10.45v-2.613h3.919zm-3.92 10.451h6.657l1.045 10.452h-7.701V67.935zm9.283 0h2.6l1.045 10.452h-2.6l-1.045-10.452zm7.702-11.758V44.42h2.612v14.37a6.54 6.54 0 01-6.532 6.533H50.952V62.71h10.451a6.54 6.54 0 006.533-6.533zM54.87 30.048v-2.613a5.231 5.231 0 015.226-5.225 5.231 5.231 0 015.226 5.225v2.613a5.231 5.231 0 01-5.226 5.226 5.231 5.231 0 01-5.226-5.226zm-3.378 16.984l8.716-8.716a1.466 1.466 0 012.072 2.072l-9.257 9.257h-13.83a1.307 1.307 0 010-2.613h12.299zM23.516 27.435a5.231 5.231 0 015.226-5.225 5.231 5.231 0 015.226 5.225v2.613a5.231 5.231 0 01-5.226 5.226 5.231 5.231 0 01-5.226-5.226v-2.613zm5.226 10.452c.917 0 1.794-.167 2.613-.457v1.403c-.324.5-1.224 1.667-2.613 1.667s-2.289-1.167-2.613-1.667V37.43a7.8 7.8 0 002.613.457zm-11.758 6.876c0-1.161.78-2.194 1.894-2.513l5.383-1.537c.757.987 2.232 2.4 4.48 2.4 2.25 0 3.724-1.413 4.482-2.401l5.382 1.537c1.001.286 1.7 1.157 1.839 2.169h-1.25a3.924 3.924 0 00-3.92 3.92c0 .46.094.896.24 1.306h-18.53v-4.88zm-5.226 7.495h40.5v2.613h-40.5v-2.613zm2.613 10.452h3.92v-2.613h-3.92v-2.613h33.968v2.613H20.903v2.613H48.34v15.677h-3.112l-2.613-5.226H20.096l-2.613 5.226H14.37V62.71zm27.934 15.677h-21.9l1.306-2.613h19.288l1.306 2.613z"/></g><defs><clipPath id="clip0_1_4535"><path fill="#fff" d="M0 0h81v81H0z"/></clipPath></defs></svg>