<svg width="75" height="75" viewBox="0 0 75 75" fill="none" xmlns="http://www.w3.org/2000/svg"><g clip-path="url(#clip0_1_4641)" fill="#EF8B54"><path d="M8.637 27.473a1.095 1.095 0 001.552 0 1.098 1.098 0 000-1.553l-2.665-2.665 2.665-2.665a1.098 1.098 0 00-1.552-1.552l-3.441 3.441a1.098 1.098 0 000 1.552l3.44 3.442zm10.893-4.218l-2.666 2.665a1.097 1.097 0 001.552 1.553l3.442-3.442a1.097 1.097 0 000-1.552l-3.442-3.442a1.097 1.097 0 10-1.551 1.553l2.664 2.665zm-7.64 4.463a1.1 1.1 0 001.423-.62l2.704-6.883a1.098 1.098 0 00-2.043-.803l-2.704 6.883a1.098 1.098 0 00.62 1.423zm-5.297 6.516h7.395a1.098 1.098 0 000-2.196H6.593a1.097 1.097 0 100 2.196zm24.426-2.196h-13a1.098 1.098 0 000 2.196h13a1.098 1.098 0 100-2.196zM6.593 38.864h3.15a1.098 1.098 0 000-2.196h-3.15a1.097 1.097 0 100 2.196zm20.41-2.196a1.097 1.097 0 100 2.196h1.918a1.098 1.098 0 100-2.196h-1.918zm-2.889 1.097c0-.605-.492-1.097-1.097-1.097h-9.422a1.097 1.097 0 100 2.196h9.422c.605 0 1.097-.492 1.097-1.099zm7.19 0c0 .607.492 1.099 1.098 1.099h3.593a1.098 1.098 0 100-2.196h-3.593c-.606 0-1.098.492-1.098 1.097zm-5.977-13.629h3.79a1.098 1.098 0 100-2.196h-3.79a1.098 1.098 0 100 2.195zm8.033 0h23.124a1.097 1.097 0 100-2.196H33.361a1.098 1.098 0 100 2.195zm19.612 2.634h-9.367a1.098 1.098 0 000 2.195h9.367a1.098 1.098 0 000-2.196zm-12.879 0h-3.22a1.097 1.097 0 100 2.195h3.22a1.097 1.097 0 100-2.196zm-14.766 2.195h7.887a1.098 1.098 0 000-2.196h-7.887a1.098 1.098 0 100 2.196zM23.03 41.259h-7.394a1.098 1.098 0 100 2.195h7.394a1.098 1.098 0 000-2.195zm-10.756 0H6.593a1.097 1.097 0 100 2.195h5.68a1.097 1.097 0 100-2.195zm24.16 0h-9.66a1.097 1.097 0 100 2.195h9.66a1.098 1.098 0 000-2.195zm13.063-5.639h-5.282a1.098 1.098 0 000 2.196h5.282a1.097 1.097 0 100-2.196zm9.166 2.196h7.456a1.098 1.098 0 100-2.196h-7.456a1.097 1.097 0 100 2.196zm-3.729-2.196h-1.709a1.098 1.098 0 100 2.196h1.71a1.097 1.097 0 100-2.196zM44.215 49.777h5.282a1.097 1.097 0 100-2.195h-5.282a1.098 1.098 0 000 2.195zm14.448 0h7.456a1.097 1.097 0 100-2.195h-7.456a1.097 1.097 0 100 2.195zm-5.437 0h1.708a1.097 1.097 0 100-2.195h-1.708a1.097 1.097 0 100 2.195zm-3.729 9.767h-5.282a1.098 1.098 0 000 2.195h5.282a1.097 1.097 0 100-2.195zm16.623 0h-7.457a1.097 1.097 0 100 2.195h7.456a1.098 1.098 0 100-2.195zm-11.186 0h-1.709a1.098 1.098 0 100 2.195h1.71a1.097 1.097 0 100-2.195z"/><path d="M70.17.146H4.83A4.837 4.837 0 000 4.977v53.11a4.837 4.837 0 004.831 4.831h4.13a1.097 1.097 0 100-2.194h-4.13a2.638 2.638 0 01-2.635-2.636v-4.164h39.99v1.892h-.871a2.16 2.16 0 00-2.159 2.159v2.748h-23.52a1.098 1.098 0 000 2.196h10.553v3.936h-3.314a4.014 4.014 0 00-4.01 4.01v2.37c0 1.01.821 1.83 1.83 1.83h33.527c1.008 0 1.83-.82 1.83-1.83v-2.37c0-2.21-1.8-4.01-4.01-4.01h-3.315v-1.387H69.02a2.16 2.16 0 002.158-2.16v-.516a4.838 4.838 0 003.739-4.704L75 4.977a4.835 4.835 0 00-4.83-4.83zM41.352 51.311v-5.262h27.631v5.262H41.352zm3.028-7.457v-2.31h21.574v2.31H44.38zm21.574 9.652v2.31H44.38v-2.31h21.574zm-37.57 9.413h10.772v.39a2.16 2.16 0 002.159 2.159h5.217v1.387H28.384v-3.937zm23.658 6.132c1 0 1.814.814 1.814 1.814v2.005H21.061v-2.005c0-1 .814-1.814 1.814-1.814h29.167zm16.941-5.779H41.352v-5.26h27.631v5.26zm3.739-5.184c0 1.063-.634 1.98-1.543 2.395v-2.509c0-1.19-.97-2.158-2.16-2.158h-.87v-1.892h4.573v4.164zm0-6.359h-1.58c.023-.124.037-5.716.037-5.716 0-1.191-.97-2.16-2.16-2.16h-.87v-2.309h.87c1.19 0 2.16-.968 2.16-2.159v-5.334c0-1.19-.97-2.16-2.16-2.16h-6.2a1.097 1.097 0 100 2.196h6.164v5.262H41.352v-5.262H55.99a1.097 1.097 0 100-2.195H41.315c-1.19 0-2.159.968-2.159 2.159v5.334c0 1.19.968 2.16 2.159 2.16h.87v2.309h-.87c-1.19 0-2.159.968-2.159 2.159 0 0 .014 5.592.036 5.716H2.196V15.077h70.526V51.73zm0-38.847H2.276V4.977a2.638 2.638 0 012.636-2.635h65.174a2.638 2.638 0 012.636 2.635v7.905z"/><path d="M8.095 4.36a3.224 3.224 0 00-3.221 3.22 3.225 3.225 0 003.221 3.222 3.226 3.226 0 003.221-3.222 3.225 3.225 0 00-3.221-3.22zm0 4.246c-.565 0-1.026-.46-1.026-1.026 0-.565.46-1.026 1.026-1.026a1.027 1.027 0 010 2.052zm8.202-4.246a3.225 3.225 0 00-3.222 3.22 3.225 3.225 0 003.222 3.222 3.225 3.225 0 003.22-3.222 3.225 3.225 0 00-3.22-3.22zm0 4.246a1.027 1.027 0 010-2.052 1.027 1.027 0 010 2.052zm8.2-4.246a3.224 3.224 0 00-3.22 3.22 3.225 3.225 0 003.22 3.222A3.226 3.226 0 0027.72 7.58a3.225 3.225 0 00-3.222-3.22zm0 4.246c-.565 0-1.026-.46-1.026-1.026 0-.565.46-1.026 1.026-1.026a1.027 1.027 0 010 2.052z"/></g><defs><clipPath id="clip0_1_4641"><path fill="#fff" d="M0 0h75v75H0z"/></clipPath></defs></svg>